<svg width="171" height="31" viewBox="0 0 171 31" fill="none" xmlns="http://www.w3.org/2000/svg">
<path d="M22.54 22.4287H24.36V12.0887L28.98 22.4287H30.26L34.86 12.1087V22.4287H36.68V8.58871H34.74L29.62 20.0287L24.5 8.58871H22.54V22.4287ZM44.4266 12.8287C46.3066 12.8287 47.9066 14.0087 47.8866 16.1487H40.9666C41.1666 14.0087 42.6466 12.8287 44.4266 12.8287ZM49.5466 19.0487H47.5866C47.1866 20.2287 46.1466 21.0687 44.5066 21.0687C42.6466 21.0687 41.0866 19.8487 40.9466 17.6287H49.7066C49.7466 17.2487 49.7666 16.9287 49.7666 16.5287C49.7666 13.5287 47.6866 11.2887 44.5066 11.2887C41.3066 11.2887 39.0866 13.4687 39.0866 16.9287C39.0866 20.4087 41.3866 22.6087 44.5066 22.6087C47.2266 22.6087 48.9866 21.0487 49.5466 19.0487ZM56.8289 12.8287C58.7089 12.8287 60.3089 14.0087 60.2889 16.1487H53.3689C53.5689 14.0087 55.0489 12.8287 56.8289 12.8287ZM61.9489 19.0487H59.9889C59.5889 20.2287 58.5489 21.0687 56.9089 21.0687C55.0489 21.0687 53.4889 19.8487 53.3489 17.6287H62.1089C62.1489 17.2487 62.1689 16.9287 62.1689 16.5287C62.1689 13.5287 60.0889 11.2887 56.9089 11.2887C53.7089 11.2887 51.4889 13.4687 51.4889 16.9287C51.4889 20.4087 53.7889 22.6087 56.9089 22.6087C59.6289 22.6087 61.3889 21.0487 61.9489 19.0487ZM64.9713 19.4287C64.9713 21.6287 66.0713 22.4287 68.0113 22.4287H69.6513V20.8887H68.3112C67.1913 20.8887 66.7913 20.5087 66.7913 19.4287V12.9687H69.6513V11.4687H66.7913V8.70871H64.9713V11.4687H63.5513V12.9687H64.9713V19.4287ZM77.5884 19.4287C77.5884 21.6287 78.6884 22.4287 80.6284 22.4287H82.2684V20.8887H80.9284C79.8084 20.8887 79.4084 20.5087 79.4084 19.4287V12.9687H82.2684V11.4687H79.4084V8.70871H77.5884V11.4687H76.1684V12.9687H77.5884V19.4287ZM84.4736 22.4287H86.2936V16.3687C86.2936 14.0087 87.5736 12.8487 89.4336 12.8487C91.2736 12.8487 92.4936 13.9887 92.4936 16.2287V22.4287H94.2936V15.9687C94.2936 12.8287 92.3536 11.2687 89.9136 11.2687C88.3736 11.2687 87.0136 11.8887 86.2936 13.0487V7.62871H84.4736V22.4287ZM101.927 12.8287C103.807 12.8287 105.407 14.0087 105.387 16.1487H98.4666C98.6666 14.0087 100.147 12.8287 101.927 12.8287ZM107.047 19.0487H105.087C104.687 20.2287 103.647 21.0687 102.007 21.0687C100.147 21.0687 98.5866 19.8487 98.4466 17.6287H107.207C107.247 17.2487 107.267 16.9287 107.267 16.5287C107.267 13.5287 105.187 11.2887 102.007 11.2887C98.8066 11.2887 96.5866 13.4687 96.5866 16.9287C96.5866 20.4087 98.8866 22.6087 102.007 22.6087C104.727 22.6087 106.487 21.0487 107.047 19.0487ZM114.141 9.96871H117.961V22.4287H119.781V9.96871H123.581V8.48871H114.141V9.96871ZM130.481 12.8287C132.361 12.8287 133.961 14.0087 133.941 16.1487H127.021C127.221 14.0087 128.701 12.8287 130.481 12.8287ZM135.601 19.0487H133.641C133.241 20.2287 132.201 21.0687 130.561 21.0687C128.701 21.0687 127.141 19.8487 127.001 17.6287H135.761C135.801 17.2487 135.821 16.9287 135.821 16.5287C135.821 13.5287 133.741 11.2887 130.561 11.2887C127.361 11.2887 125.141 13.4687 125.141 16.9287C125.141 20.4087 127.441 22.6087 130.561 22.6087C133.281 22.6087 135.041 21.0487 135.601 19.0487ZM137.544 16.9087C137.544 20.3087 139.804 22.6087 142.724 22.6087C144.744 22.6087 146.164 21.5687 146.824 20.3887V22.4287H148.664V11.4687H146.824V13.4687C146.184 12.3287 144.784 11.2887 142.744 11.2887C139.804 11.2887 137.544 13.4887 137.544 16.9087ZM146.824 16.9287C146.824 19.5087 145.104 21.0087 143.104 21.0087C141.104 21.0087 139.404 19.4887 139.404 16.9087C139.404 14.3287 141.104 12.8687 143.104 12.8687C145.104 12.8687 146.824 14.3887 146.824 16.9287ZM167.559 22.4287H169.359V15.9687C169.359 12.8287 167.419 11.2687 164.919 11.2687C163.239 11.2687 161.679 12.1287 161.039 13.7087C160.319 12.0687 158.819 11.2687 157.019 11.2687C155.579 11.2687 154.279 11.8887 153.559 13.0487V11.4687H151.739V22.4287H153.559V16.3887C153.559 14.0287 154.819 12.8487 156.659 12.8487C158.459 12.8487 159.659 13.9887 159.659 16.2287V22.4287H161.459V16.3887C161.459 14.0287 162.719 12.8487 164.559 12.8487C166.359 12.8487 167.559 13.9887 167.559 16.2287V22.4287Z" fill="white"/>
<rect x="0.632568" y="10.0071" width="11.8674" height="11.8674" stroke="#FF6C6C"/>
</svg>
