<svg width="104" height="31" viewBox="0 0 104 31" fill="none" xmlns="http://www.w3.org/2000/svg">
<path d="M26.5402 15.1087V9.98871H29.2202C31.3002 9.98871 32.1802 10.9487 32.1802 12.5687C32.1802 14.1287 31.3002 15.1087 29.2202 15.1087H26.5402ZM34.0402 12.5687C34.0402 10.2887 32.5002 8.48871 29.2202 8.48871H24.7202V22.4287H26.5402V16.6087H29.2202C32.6802 16.6087 34.0402 14.6887 34.0402 12.5687ZM38.1222 16.4687C38.1222 13.9287 39.4422 13.1487 41.1822 13.1487H41.6622V11.2687C39.9222 11.2687 38.7422 12.0287 38.1222 13.2487V11.4687H36.3022V22.4287H38.1222V16.4687ZM54.1631 16.9287C54.1631 13.4687 51.7431 11.2887 48.6231 11.2887C45.5231 11.2887 43.0831 13.4687 43.0831 16.9287C43.0831 20.4087 45.4431 22.6087 48.5431 22.6087C51.6631 22.6087 54.1631 20.4087 54.1631 16.9287ZM44.9431 16.9287C44.9431 14.1687 46.6831 12.8687 48.6031 12.8687C50.4831 12.8687 52.3031 14.1687 52.3031 16.9287C52.3031 19.7087 50.4431 21.0087 48.5431 21.0087C46.6431 21.0087 44.9431 19.7087 44.9431 16.9287ZM57.5361 9.68871C58.2161 9.68871 58.7561 9.14871 58.7561 8.44871C58.7561 7.74871 58.2161 7.20871 57.5361 7.20871C56.8561 7.20871 56.3161 7.74871 56.3161 8.44871C56.3161 9.14871 56.8561 9.68871 57.5361 9.68871ZM56.6161 11.4687V24.7687C56.6161 25.7287 56.2361 26.0887 55.2361 26.0887H54.4761V27.6287H55.5361C57.3961 27.6287 58.4361 26.7887 58.4361 24.8087V11.4687H56.6161ZM66.1771 12.8287C68.0571 12.8287 69.6571 14.0087 69.6371 16.1487H62.7171C62.9171 14.0087 64.3971 12.8287 66.1771 12.8287ZM71.2971 19.0487H69.3371C68.9371 20.2287 67.8971 21.0687 66.2571 21.0687C64.3971 21.0687 62.8371 19.8487 62.6971 17.6287H71.4571C71.4971 17.2487 71.5171 16.9287 71.5171 16.5287C71.5171 13.5287 69.4371 11.2887 66.2571 11.2887C63.0571 11.2887 60.8371 13.4687 60.8371 16.9287C60.8371 20.4087 63.1371 22.6087 66.2571 22.6087C68.9771 22.6087 70.7371 21.0487 71.2971 19.0487ZM73.2394 16.9287C73.2394 20.4087 75.4594 22.6087 78.5794 22.6087C81.2994 22.6087 83.0794 21.0887 83.6394 18.9087H81.6794C81.2794 20.2887 80.1994 21.0687 78.5794 21.0687C76.5794 21.0687 75.0994 19.6487 75.0994 16.9287C75.0994 14.2487 76.5794 12.8287 78.5794 12.8287C80.1994 12.8287 81.2994 13.6687 81.6794 14.9887H83.6394C83.0794 12.6887 81.2994 11.2887 78.5794 11.2887C75.4594 11.2887 73.2394 13.4887 73.2394 16.9287ZM86.4678 19.4287C86.4678 21.6287 87.5678 22.4287 89.5078 22.4287H91.1478V20.8887H89.8078C88.6878 20.8887 88.2878 20.5087 88.2878 19.4287V12.9687H91.1478V11.4687H88.2878V8.70871H86.4678V11.4687H85.0478V12.9687H86.4678V19.4287ZM101.233 19.4487C101.153 15.5287 94.793 16.9487 94.793 14.3487C94.793 13.4687 95.593 12.8287 96.933 12.8287C98.393 12.8287 99.233 13.6287 99.313 14.7287H101.133C101.013 12.5887 99.413 11.2887 96.993 11.2887C94.553 11.2887 92.973 12.6687 92.973 14.3487C92.973 18.4287 99.453 17.0087 99.453 19.4487C99.453 20.3487 98.653 21.0687 97.213 21.0687C95.673 21.0687 94.733 20.2687 94.633 19.2087H92.753C92.873 21.2087 94.673 22.6087 97.233 22.6087C99.653 22.6087 101.233 21.2487 101.233 19.4487Z" fill="white"/>
<rect x="0.0746155" y="10.0711" width="0.797579" height="15.9512" transform="rotate(-45 0.0746155 10.0711)" fill="#0057FF"/>
<rect x="11.3538" y="9.50711" width="0.797579" height="15.9512" transform="rotate(45 11.3538 9.50711)" fill="#0057FF"/>
</svg>
