<svg width="86" height="31" viewBox="0 0 86 31" fill="none" xmlns="http://www.w3.org/2000/svg">
<path d="M36.2303 22.4287H38.0503V8.48871H36.2303V14.6087H29.1303V8.48871H27.3103V22.4287H29.1303V16.1087H36.2303V22.4287ZM51.5384 16.9287C51.5384 13.4687 49.1184 11.2887 45.9984 11.2887C42.8984 11.2887 40.4584 13.4687 40.4584 16.9287C40.4584 20.4087 42.8184 22.6087 45.9184 22.6087C49.0384 22.6087 51.5384 20.4087 51.5384 16.9287ZM42.3184 16.9287C42.3184 14.1687 44.0584 12.8687 45.9784 12.8687C47.8584 12.8687 49.6784 14.1687 49.6784 16.9287C49.6784 19.7087 47.8184 21.0087 45.9184 21.0087C44.0184 21.0087 42.3184 19.7087 42.3184 16.9287ZM69.7514 22.4287H71.5514V15.9687C71.5514 12.8287 69.6114 11.2687 67.1114 11.2687C65.4314 11.2687 63.8714 12.1287 63.2314 13.7087C62.5114 12.0687 61.0114 11.2687 59.2114 11.2687C57.7714 11.2687 56.4714 11.8887 55.7514 13.0487V11.4687H53.9314V22.4287H55.7514V16.3887C55.7514 14.0287 57.0114 12.8487 58.8514 12.8487C60.6514 12.8487 61.8514 13.9887 61.8514 16.2287V22.4287H63.6514V16.3887C63.6514 14.0287 64.9114 12.8487 66.7514 12.8487C68.5514 12.8487 69.7514 13.9887 69.7514 16.2287V22.4287ZM79.1968 12.8287C81.0768 12.8287 82.6768 14.0087 82.6568 16.1487H75.7368C75.9368 14.0087 77.4168 12.8287 79.1968 12.8287ZM84.3168 19.0487H82.3568C81.9568 20.2287 80.9168 21.0687 79.2768 21.0687C77.4168 21.0687 75.8568 19.8487 75.7168 17.6287H84.4768C84.5168 17.2487 84.5368 16.9287 84.5368 16.5287C84.5368 13.5287 82.4568 11.2887 79.2768 11.2887C76.0768 11.2887 73.8568 13.4687 73.8568 16.9287C73.8568 20.4087 76.1568 22.6087 79.2768 22.6087C81.9968 22.6087 83.7568 21.0487 84.3168 19.0487Z" fill="white"/>
<path d="M2.28814 19.9049L8.3091 9.47629L14.3301 19.9049H2.28814Z" stroke="#03E627"/>
</svg>
