<svg width="113" height="31" viewBox="0 0 113 31" fill="none" xmlns="http://www.w3.org/2000/svg">
<path d="M33.4901 22.4287H35.4101L30.3901 8.56871H28.2901L23.2501 22.4287H25.1701L26.2901 19.3287H32.3701L33.4901 22.4287ZM31.8501 17.8487H26.8101L29.3301 10.8087L31.8501 17.8487ZM39.4267 13.5087V7.62871H37.6067V22.4287H39.4267V20.4087C40.1067 21.6087 41.5267 22.6087 43.5267 22.6087C46.4667 22.6087 48.7267 20.3087 48.7267 16.9087C48.7267 13.4887 46.4867 11.2887 43.5267 11.2887C41.5867 11.2887 40.1267 12.2887 39.4267 13.5087ZM46.8667 16.9087C46.8667 19.4887 45.1667 21.0087 43.1467 21.0087C41.1667 21.0087 39.4267 19.5087 39.4267 16.9287C39.4267 14.3887 41.1667 12.8687 43.1467 12.8687C45.1667 12.8687 46.8667 14.3287 46.8667 16.9087ZM61.5223 16.9287C61.5223 13.4687 59.1023 11.2887 55.9823 11.2887C52.8823 11.2887 50.4423 13.4687 50.4423 16.9287C50.4423 20.4087 52.8023 22.6087 55.9023 22.6087C59.0223 22.6087 61.5223 20.4087 61.5223 16.9287ZM52.3023 16.9287C52.3023 14.1687 54.0423 12.8687 55.9623 12.8687C57.8423 12.8687 59.6623 14.1687 59.6623 16.9287C59.6623 19.7087 57.8023 21.0087 55.9023 21.0087C54.0023 21.0087 52.3023 19.7087 52.3023 16.9287ZM73.6352 11.4687H71.8152V17.4887C71.8152 19.8487 70.5552 21.0087 68.6752 21.0087C66.8352 21.0087 65.6152 19.8687 65.6152 17.6487V11.4687H63.8152V17.8887C63.8152 21.0287 65.7952 22.5887 68.3152 22.5887C69.7752 22.5887 71.1152 21.9487 71.8152 20.8087V22.4287H73.6352V11.4687ZM77.1082 19.4287C77.1082 21.6287 78.2082 22.4287 80.1482 22.4287H81.7882V20.8887H80.4482C79.3282 20.8887 78.9282 20.5087 78.9282 19.4287V12.9687H81.7882V11.4687H78.9282V8.70871H77.1082V11.4687H75.6882V12.9687H77.1082V19.4287ZM89.2854 17.2887C89.2854 20.9087 91.6454 22.5687 94.5254 22.5687C97.4054 22.5687 99.7854 20.9087 99.7854 17.2887V8.48871H97.9654V17.3087C97.9654 19.8687 96.6054 20.9687 94.5454 20.9687C92.4854 20.9687 91.1054 19.8687 91.1054 17.3087V8.48871H89.2854V17.2887ZM110.701 19.4487C110.621 15.5287 104.261 16.9487 104.261 14.3487C104.261 13.4687 105.061 12.8287 106.401 12.8287C107.861 12.8287 108.701 13.6287 108.781 14.7287H110.601C110.481 12.5887 108.881 11.2887 106.461 11.2887C104.021 11.2887 102.441 12.6687 102.441 14.3487C102.441 18.4287 108.921 17.0087 108.921 19.4487C108.921 20.3487 108.121 21.0687 106.681 21.0687C105.141 21.0687 104.201 20.2687 104.101 19.2087H102.221C102.341 21.2087 104.141 22.6087 106.701 22.6087C109.121 22.6087 110.701 21.2487 110.701 19.4487Z" fill="white"/>
<circle cx="8.29751" cy="15.956" r="6.97976" stroke="#FF0000"/>
</svg>
